<svg xmlns="http://www.w3.org/2000/svg" width="490.002" height="80" viewBox="0 0 490.002 80">
  <g id="Group_4590" data-name="Group 4590" transform="translate(-70 -68)">
    <g id="Group_4586" data-name="Group 4586" transform="translate(70 68)">
      <g id="Group_4584" data-name="Group 4584" transform="translate(0)">
        <path id="Path_9889" data-name="Path 9889" d="M2159.035,247.062c3.641,0,4.855,1.214,4.855,4.857v70.242c0,3.641-1.215,4.855-4.855,4.855h-15.779a5.306,5.306,0,0,1-4.744-2.316l-12.469-21.472a67.192,67.192,0,0,1-4.967-9.268c-.991-2.319-2.757-7.5-5.185-15.339h-.883c1.876,8.717,3.089,14.676,3.532,17.766.33,3.089.551,7.835.551,14.344v11.43c0,3.641-1.214,4.855-4.854,4.855h-14.125c-3.641,0-4.854-1.214-4.854-4.855V251.919c0-3.642,1.213-4.857,4.854-4.857h16.882a5.353,5.353,0,0,1,4.745,2.208l14.346,23.393a71.6,71.6,0,0,1,3.973,7.281c.33.774.992,2.539,2.207,5.408,1.213,2.979,2.206,5.628,3.2,7.944h.992c-2.979-9.82-4.854-16.22-5.406-19.2a57.293,57.293,0,0,1-.992-12.138V251.919c0-3.642,1.212-4.857,4.854-4.857Z" transform="translate(-1955.967 -247.061)" fill="#fab01d"/>
        <path id="Path_9890" data-name="Path 9890" d="M2247.244,248.359c3.718,0,4.957,1.24,4.957,4.959V260.3a8.733,8.733,0,0,1-1.577,5.071l-27.493,40.337h24.676c3.718,0,4.958,1.239,4.958,4.958V323.4c0,3.718-1.24,4.958-4.958,4.958h-55.324c-3.717,0-4.957-1.24-4.957-4.958v-7.1a8.637,8.637,0,0,1,1.578-4.958l27.6-40.449h-23.662c-3.718,0-4.958-1.239-4.958-4.958V253.318c0-3.72,1.24-4.959,4.958-4.959Z" transform="translate(-1940.764 -248.359)" fill="#fab01d"/>
        <g id="Group_4578" data-name="Group 4578" transform="translate(32.001 0.001)">
          <g id="Group_4577" data-name="Group 4577" transform="translate(0)">
            <path id="Path_9897" data-name="Path 9897" d="M2015.232,278.4c0-19.448,12.8-31.334,35.2-31.334,17.324,0,28.469,6.591,33.434,19.665,1.213,3.348.332,4.86-3.09,6.049l-15.006,5.186c-3.53.973-4.855.434-6.18-3.024-1.765-4.431-3.973-6.159-9.158-6.159-7.5,0-9.6,2.593-9.6,9.508v17.5c0,6.914,2.1,9.508,9.6,9.508q6.952,0,9.268-6.159c1.325-3.458,2.76-4.213,6.181-3.025l14.895,5.187c3.422,1.187,4.3,2.808,3.09,6.158-4.965,13.074-16.11,19.557-33.434,19.557-22.4,0-35.2-11.884-35.2-31.334Z" transform="translate(-2015.232 -247.062)" fill="#fab01d"/>
          </g>
        </g>
        <g id="Group_4587" data-name="Group 4587" transform="translate(0 0.001)">
          <path id="Path_9891" data-name="Path 9891" d="M2207.361,379.765c0-3.2,1.214-4.414,4.414-4.414h16.772c3.2,0,4.414,1.214,4.414,4.414V427.6c0,3.2-1.214,4.414-4.414,4.414h-16.772c-3.2,0-4.414-1.214-4.414-4.414Z" transform="translate(-2207.361 -352.015)" fill="#f2b231"/>
          <path id="Path_9904" data-name="Path 9904" d="M2227.071,363.683c4.524,0,5.89,1.508,5.89,5.886v4.382c0,4.378-1.51,5.816-5.89,5.816h-13.822c-4.38,0-5.888-1.438-5.888-5.816v-4.382c0-4.378,1.364-5.886,5.888-5.886Z" transform="translate(-2207.361 -363.683)" fill="#f2b231"/>
        </g>
        <g id="Group_4588" data-name="Group 4588" transform="translate(107.535 0.001)">
          <path id="Path_9891-2" data-name="Path 9891" d="M2207.361,379.765c0-3.2,1.214-4.414,4.414-4.414h16.772c3.2,0,4.414,1.214,4.414,4.414V427.6c0,3.2-1.214,4.414-4.414,4.414h-16.772c-3.2,0-4.414-1.214-4.414-4.414Z" transform="translate(-2207.361 -352.015)" fill="#f2b231"/>
          <path id="Path_9904-2" data-name="Path 9904" d="M2227.071,363.683c4.524,0,5.89,1.508,5.89,5.886v4.382c0,4.378-1.51,5.816-5.89,5.816h-13.822c-4.38,0-5.888-1.438-5.888-5.816v-4.382c0-4.378,1.364-5.886,5.888-5.886Z" transform="translate(-2207.361 -363.683)" fill="#f2b231"/>
        </g>
        <g id="Group_4589" data-name="Group 4589" transform="translate(215.068 0.001)">
          <path id="Path_9891-3" data-name="Path 9891" d="M2207.361,379.765c0-3.2,1.214-4.414,4.414-4.414h16.772c3.2,0,4.414,1.214,4.414,4.414V427.6c0,3.2-1.214,4.414-4.414,4.414h-16.772c-3.2,0-4.414-1.214-4.414-4.414Z" transform="translate(-2207.361 -352.015)" fill="#f2b231"/>
          <path id="Path_9904-3" data-name="Path 9904" d="M2227.071,363.683c4.524,0,5.89,1.508,5.89,5.886v4.382c0,4.378-1.51,5.816-5.89,5.816h-13.822c-4.38,0-5.888-1.438-5.888-5.816v-4.382c0-4.378,1.364-5.886,5.888-5.886Z" transform="translate(-2207.361 -363.683)" fill="#f2b231"/>
        </g>
      </g>
      <g id="Group_4585" data-name="Group 4585" transform="translate(330.002)">
        <rect id="Rectangle_2722" data-name="Rectangle 2722" width="160" height="79.999" rx="5" transform="translate(0)" fill="#73ba5e"/>
        <g id="Group_4583" data-name="Group 4583" transform="translate(16.001 10.001)">
          <path id="Path_9898" data-name="Path 9898" d="M2239.6,300.549c3.631,0,4.727,1.184,4.727,4.622v3.441c0,3.438-1.212,4.567-4.727,4.567h-3.343c-3.516,0-4.726-1.129-4.726-4.567v-3.441c0-3.438,1.094-4.622,4.726-4.622Z" transform="translate(-2231.533 -300.549)" fill="#fff"/>
          <path id="Path_9899" data-name="Path 9899" d="M2241.968,295.129c0-10.148,6.686-16.351,18.386-16.351,9.049,0,14.87,3.439,17.464,10.262.634,1.748.173,2.538-1.614,3.159l-7.839,2.705c-1.843.508-2.534.225-3.227-1.578-.921-2.312-2.076-3.214-4.783-3.214-3.92,0-5.015,1.354-5.015,4.962v9.135c0,3.608,1.095,4.962,5.015,4.962a4.705,4.705,0,0,0,4.842-3.216c.692-1.8,1.44-2.2,3.227-1.578l7.781,2.706c1.787.62,2.248,1.466,1.614,3.214-2.594,6.822-8.415,10.205-17.464,10.205-11.7,0-18.386-6.2-18.386-16.351Z" transform="translate(-2241.968 -260.503)" fill="#fff"/>
          <path id="Path_9900" data-name="Path 9900" d="M2268.826,295.129c0-10.205,6.686-16.351,18.386-16.351s18.387,6.146,18.387,16.351v9.023c0,10.205-6.687,16.351-18.387,16.351s-18.386-6.146-18.386-16.351Zm23.4-.732c0-2.877-1.672-4.286-5.015-4.286s-5.014,1.409-5.014,4.286v10.487c0,2.875,1.67,4.286,5.014,4.286s5.015-1.411,5.015-4.286Z" transform="translate(-2227.585 -260.503)" fill="#fff"/>
          <path id="Path_9901" data-name="Path 9901" d="M2338.416,279.377c1.9,0,2.536.563,2.536,2.369V317.1c0,1.8-.633,2.368-2.536,2.368h-8.184c-1.9,0-2.537-.564-2.537-2.368v-3.5a40.251,40.251,0,0,1,.578-6.992,89.7,89.7,0,0,1,2.536-9.866h-.692c-1.672,4.453-2.767,7.16-3.229,8.232l-2.478,5.582a2.859,2.859,0,0,1-2.824,1.635h-5.073a2.7,2.7,0,0,1-2.882-1.635l-2.592-5.582-2.94-8.232h-.692c1.326,4.848,2.134,8.288,2.479,10.374a47.274,47.274,0,0,1,.46,6.542v3.44c0,1.8-.633,2.368-2.535,2.368h-7.666c-1.9,0-2.536-.564-2.536-2.368V281.746c0-1.806.633-2.369,2.536-2.369h7.032c2.075,0,2.709.339,3.574,1.748l8.414,17.537,8.473-17.48c.866-1.523,1.442-1.8,3.344-1.8Z" transform="translate(-2212.957 -260.312)" fill="#fff"/>
        </g>
      </g>
    </g>
  </g>
</svg>
